<?xml version="1.0" encoding="utf-8"?>
<!-- Generator: Adobe Illustrator 17.0.0, SVG Export Plug-In . SVG Version: 6.00 Build 0)  -->
<!DOCTYPE svg PUBLIC "-//W3C//DTD SVG 1.1//EN" "http://www.w3.org/Graphics/SVG/1.1/DTD/svg11.dtd">
<svg version="1.1" id="Layer_1" xmlns="http://www.w3.org/2000/svg" xmlns:xlink="http://www.w3.org/1999/xlink" x="0px" y="0px"
	 width="882.418px" height="805.968px" viewBox="0 0 882.418 805.968" enable-background="new 0 0 882.418 805.968"
	 xml:space="preserve">
<g fill="#70d59c">
	<defs>
		<rect id="SVGID_1_" width="882.418" height="805.968"/>
	</defs>
	<clipPath id="SVGID_2_">
		<use xlink:href="#SVGID_1_"  overflow="visible"/>
	</clipPath>
	<path clip-path="url(#SVGID_2_)" d="M180,765.95H40H20c6.7,6.7,13.3,13.3,20,20V677.551V504.65v-39.8l-20,20h140h20
		c-6.7-6.7-13.3-13.3-20-20v108.4v172.9v39.8c0,10.5,9.2,20.5,20,20c10.8-0.5,20-8.8,20-20V677.551V504.65v-39.8
		c0-10.8-9.2-20-20-20H40H20c-10.8,0-20,9.2-20,20v108.4v172.9v39.8c0,10.8,9.2,20,20,20h140h20c10.5,0,20.5-9.2,20-20
		S191.2,765.95,180,765.95"/>
	<path clip-path="url(#SVGID_2_)" d="M480,765.95H340h-20c6.7,6.7,13.3,13.3,20,20v-43v-102.7v-124.8v-107.4c0-17.4,0.8-35,0-52.5
		v-0.7l-20,20h140h20c-6.7-6.7-13.3-13.3-20-20v43v102.7v124.8v107.4c0,17.5-0.5,35,0,52.5v0.7c0,10.5,9.2,20.5,20,20
		c10.8-0.5,20-8.8,20-20v-43v-102.7v-124.8v-107.4c0-17.5,0.5-35,0-52.5v-0.7c0-10.8-9.2-20-20-20H340h-20c-10.8,0-20,9.2-20,20v43
		v102.7v124.8v107.4c0,17.5-0.5,35,0,52.5v0.7c0,10.8,9.2,20,20,20h140h20c10.5,0,20.5-9.2,20-20S491.2,765.95,480,765.95"/>
	<path clip-path="url(#SVGID_2_)" d="M862.4,199.55h-82c-10.8,0-20,9.2-20,20v56.5v135.5v162.8v141.6c0,22.8-0.9,45.8,0,68.7v0.9
		l20-20h-140h-20l20,20v-56.5v-135.5v-162.8v-141.6c0-22.9,0.5-45.8,0-68.7v-0.9c0-10.8-9.2-20-20-20h-82.7
		c4.7,11.4,9.4,22.8,14.099,34.1c18.401-22.6,36.701-45.1,55.101-67.7c29-35.7,58.1-71.3,87.1-107c6.7-8.3,13.4-16.5,20.2-24.8
		h-28.3c18.399,22.6,36.7,45.1,55.1,67.7c29,35.7,58.1,71.3,87.1,107c6.699,8.3,13.4,16.5,20.199,24.8c6.601,8.1,21.5,7.4,28.301,0
		c7.9-8.7,7.1-19.6,0-28.3c-18.4-22.6-36.7-45.1-55.1-67.7c-29-35.7-58.1-71.3-87.1-107c-6.7-8.3-13.4-16.5-20.2-24.8
		c-6.401-7.8-22-7.8-28.3,0c-18.4,22.6-36.7,45.1-55.101,67.7c-29,35.7-58.099,71.3-87.099,107c-6.7,8.3-13.401,16.5-20.2,24.8
		c-5.201,6.4-7.5,13.8-4.1,21.8c3.1,7.3,10.3,12.3,18.3,12.3h82.7c-6.7-6.7-13.3-13.3-20-20v56.5v135.5v162.8v141.6
		c0,22.901-0.5,45.8,0,68.7v0.9c0,10.801,9.2,20,20,20h140h20c10.8,0,20-9.199,20-20v-56.5v-135.5v-162.8v-141.6
		c0-22.8,0.899-45.8,0-68.7v-0.9c-6.7,6.7-13.3,13.3-20,20h82c10.5,0,20.5-9.2,20-20C881.9,208.75,873.6,199.55,862.4,199.55"/>
</g>
</svg>
