<?xml version="1.0" encoding="utf-8"?>
<!-- Generator: Adobe Illustrator 17.0.0, SVG Export Plug-In . SVG Version: 6.00 Build 0)  -->
<!DOCTYPE svg PUBLIC "-//W3C//DTD SVG 1.1//EN" "http://www.w3.org/Graphics/SVG/1.1/DTD/svg11.dtd">
<svg version="1.1" id="Layer_1" xmlns="http://www.w3.org/2000/svg" xmlns:xlink="http://www.w3.org/1999/xlink" x="0px" y="0px"
	 width="90px" height="86px" viewBox="0 0 90 86" enable-background="new 0 0 90 86" xml:space="preserve">
<g fill="#15d2fb">
	<defs>
		<rect id="SVGID_1_" y="0" width="90" height="86"/>
	</defs>
	<clipPath id="SVGID_2_">
		<use xlink:href="#SVGID_1_"  overflow="visible"/>
	</clipPath>
	<path clip-path="url(#SVGID_2_)" d="M43.667,0c-1.57,0.082-2.925,1.586-2.843,3.157C40.906,4.728,42.409,6.083,43.979,6h42.98
		C88.543,6.023,90,4.585,90,3c0-1.584-1.457-3.022-3.041-3H43.667z M40.98,14c-2.144,0-3.987,0.903-5.435,2.282
		c-1.447,1.378-2.561,3.384-2.561,5.718v24.531c-7.503,1.626-15.73,2.62-23.145,5.688c-1.861,0.769-3.85,2.159-5.779,3.906
		C3.096,56.998,2.184,57.931,1.437,59C0.689,60.069,0,61.301,0,63v17c0,0.745,0.018,1.402,0.156,2.156
		c0.137,0.754,0.463,1.728,1.25,2.499c0.786,0.773,1.756,1.095,2.498,1.219c0.742,0.125,1.377,0.129,2.093,0.125h38.981
		c0.732,0,1.458-0.288,1.999-0.781c6.57-5.959,12.059-10.774,20.803-17.843c0.028-0.023,0.034-0.041,0.063-0.063
		c1.732-1.33,3.16-2.856,3.81-4.906c0.659-2.077,0.099-4.671-1.436-6.406c-1.828-2.065-4.323-2.993-6.654-3.156
		c-2.306-0.161-4.561,0.323-6.403,1.781l-0.031-0.031l-8.153,6.282V22.001c0.002-2.336-1.112-4.34-2.561-5.719
		C44.967,14.903,43.125,14.001,40.98,14L40.98,14z M57.66,15c-1.57,0.082-2.925,1.586-2.843,3.157s1.585,2.926,3.155,2.843h28.987
		C88.543,21.023,90,19.585,90,18s-1.457-3.022-3.041-3H57.66z M40.98,20c0.205,0,0.848,0.215,1.312,0.657
		c0.464,0.441,0.688,0.959,0.687,1.343v45c-0.003,1.117,0.676,2.21,1.679,2.701c1.003,0.492,2.281,0.361,3.163-0.326l12.993-10
		c0.011-0.021,0.022-0.042,0.032-0.062c0.221-0.178,1.234-0.542,2.28-0.469c1.046,0.073,2.008,0.465,2.593,1.125
		c0.42,0.474,0.319,0.278,0.218,0.594c-0.1,0.316-0.631,1.157-1.78,2.031c-0.021,0.021-0.042,0.041-0.062,0.063
		c-8.507,6.876-13.957,11.657-20.241,17.344H5.997V63.157c0.019,0.013,0.099-0.323,0.375-0.719c0.369-0.527,0.99-1.214,1.718-1.875
		c1.456-1.319,3.468-2.567,4.06-2.812c6.927-2.865,15.896-3.732,24.551-5.844c1.288-0.318,2.277-1.579,2.28-2.906v-27
		c0-0.385,0.224-0.933,0.687-1.375C40.132,20.185,40.776,20.001,40.98,20L40.98,20z M57.66,29c-1.57,0.082-2.925,1.585-2.843,3.156
		c0.082,1.572,1.585,2.926,3.155,2.844h28.987C88.543,35.022,90,33.585,90,32c0-1.585-1.457-3.022-3.041-3H57.66z M57.66,43
		c-1.57,0.082-2.925,1.585-2.843,3.156c0.082,1.572,1.585,2.926,3.155,2.844h28.987C88.543,49.022,90,47.585,90,46
		c0-1.585-1.457-3.022-3.041-3H57.66z"/>
</g>
</svg>
