<?xml version="1.0" encoding="utf-8"?>
<!-- Generator: Adobe Illustrator 17.0.0, SVG Export Plug-In . SVG Version: 6.00 Build 0)  -->
<!DOCTYPE svg PUBLIC "-//W3C//DTD SVG 1.1//EN" "http://www.w3.org/Graphics/SVG/1.1/DTD/svg11.dtd">
<svg version="1.1" id="Layer_1" xmlns="http://www.w3.org/2000/svg" xmlns:xlink="http://www.w3.org/1999/xlink" x="0px" y="0px"
	 width="60.189px" height="56.4px" viewBox="0 0 60.189 56.4" enable-background="new 0 0 60.189 56.4" xml:space="preserve">
<g>
	<defs>
		<rect id="SVGID_1_" y="0" width="60.189" height="56.4"/>
	</defs>
	<clipPath id="SVGID_2_">
		<use xlink:href="#SVGID_1_"  overflow="visible"/>
	</clipPath>
	<path clip-path="url(#SVGID_2_)" fill="#ff6b62" d="M30.095,46.2c-12.7,0-23.1-10.4-23.1-23.1S17.395,0,30.095,0
		s23.1,10.4,23.1,23.1S42.795,46.2,30.095,46.2 M30.095,6c-9.4,0-17.1,7.7-17.1,17.1c0,9.5,7.7,17.1,17.1,17.1s17.1-7.7,17.1-17.1
		S39.495,6,30.095,6"/>
	<path clip-path="url(#SVGID_2_)" fill="#ff6b62" d="M2.994,56.4c-0.3,0-0.5,0-0.8-0.1c-1.6-0.4-2.5-2.099-2.1-3.7
		c1.9-6.899,5.9-12.9,11.4-17.4c1.3-1.1,3.2-0.9,4.2,0.4c1,1.3,0.9,3.2-0.4,4.2c-4.6,3.701-7.8,8.701-9.4,14.401
		C5.594,55.501,4.294,56.4,2.994,56.4"/>
	<path clip-path="url(#SVGID_2_)" fill="#ff6b62" d="M57.194,56.4c-1.3,0-2.5-0.899-2.899-2.199c-1.601-5.7-4.8-10.7-9.401-14.401
		c-1.3-1-1.5-2.9-0.399-4.2c1-1.3,2.899-1.5,4.199-0.4c5.5,4.5,9.4,10.501,11.4,17.301c0.401,1.599-0.5,3.299-2.099,3.7
		C57.694,56.3,57.394,56.4,57.194,56.4"/>
</g>
</svg>
