<?xml version="1.0" encoding="utf-8"?>
<!-- Generator: Adobe Illustrator 17.0.0, SVG Export Plug-In . SVG Version: 6.00 Build 0)  -->
<!DOCTYPE svg PUBLIC "-//W3C//DTD SVG 1.1//EN" "http://www.w3.org/Graphics/SVG/1.1/DTD/svg11.dtd">
<svg version="1.1" id="Layer_1" xmlns="http://www.w3.org/2000/svg" xmlns:xlink="http://www.w3.org/1999/xlink" x="0px" y="0px"
	 width="60.683px" height="60.2px" viewBox="0 0 60.683 60.2" enable-background="new 0 0 60.683 60.2" xml:space="preserve">
<g fill="#46f6bb">
	<defs>
		<rect id="SVGID_1_" y="0" width="60.683" height="60.2"/>
	</defs>
	<clipPath id="SVGID_2_">
		<use xlink:href="#SVGID_1_"  overflow="visible"/>
	</clipPath>
	<path clip-path="url(#SVGID_2_)" d="M57.202,15.25h-9.52l1.74-11c0.442-1.853-0.703-3.714-2.556-4.156
		C46.606,0.032,46.34,0.001,46.072,0c-2.375,0.131-4.337,1.901-4.71,4.25l-1.74,11h-13.84l1.75-11
		c0.442-1.853-0.703-3.714-2.556-4.156C24.713,0.031,24.444,0,24.173,0c-2.379,0.117-4.346,1.895-4.7,4.25l-1.75,11h-9.52
		c-2.304,0.069-4.248,1.734-4.67,4c-0.36,1.815,0.819,3.578,2.634,3.938c0.249,0.049,0.503,0.07,0.756,0.062h9.52l-2.19,13.9h-9.52
		c-2.304,0.069-4.248,1.734-4.67,4c-0.354,1.822,0.835,3.586,2.657,3.939c0.241,0.047,0.487,0.068,0.733,0.061h9.54l-1.71,10.8
		c-0.442,1.853,0.703,3.715,2.556,4.156c0.26,0.063,0.526,0.094,0.794,0.094c2.373-0.134,4.333-1.903,4.71-4.25l1.65-10.739h13.88
		l-1.7,10.739c-0.436,1.86,0.718,3.722,2.579,4.159c0.255,0.06,0.518,0.091,0.781,0.091c2.371-0.135,4.327-1.904,4.7-4.25
		l1.7-10.739h9.52c2.302-0.074,4.244-1.737,4.67-4.001c0.36-1.814-0.82-3.578-2.634-3.937c-0.249-0.05-0.503-0.071-0.756-0.063
		h-9.52l2.19-13.84h9.52c2.303-0.069,4.248-1.734,4.669-4c0.427-1.8-0.686-3.605-2.486-4.032
		C57.809,15.268,57.507,15.238,57.202,15.25 M36.153,37.15h-13.84l2.19-13.84h13.839L36.153,37.15z"/>
</g>
</svg>
