<?xml version="1.0" encoding="utf-8"?>
<!-- Generator: Adobe Illustrator 17.0.0, SVG Export Plug-In . SVG Version: 6.00 Build 0)  -->
<!DOCTYPE svg PUBLIC "-//W3C//DTD SVG 1.1//EN" "http://www.w3.org/Graphics/SVG/1.1/DTD/svg11.dtd">
<svg version="1.1" id="Layer_1" xmlns="http://www.w3.org/2000/svg" xmlns:xlink="http://www.w3.org/1999/xlink" x="0px" y="0px"
	 width="82.778px" height="98.025px" viewBox="0 0 82.778 98.025" enable-background="new 0 0 82.778 98.025" xml:space="preserve">
<g fill="#d88bfc">
	<defs>
		<rect id="SVGID_1_" y="0" width="82.778" height="98.025"/>
	</defs>
	<clipPath id="SVGID_2_">
		<use xlink:href="#SVGID_1_"  overflow="visible"/>
	</clipPath>
	<path clip-path="url(#SVGID_2_)" d="M80.831,8.031l-4.899-1.24l-1.241-4.9c-0.336-1.339-1.695-2.151-3.034-1.815
		c-0.437,0.111-0.837,0.337-1.156,0.655l-9.68,9.68c-0.624,0.622-0.875,1.526-0.66,2.38l1.25,5l-18.559,18.58
		c-1.053,0.894-1.182,2.471-0.288,3.524c0.894,1.052,2.471,1.181,3.524,0.287c0.098-0.083,0.189-0.174,0.273-0.271l18.611-18.59
		l5,1.25c0.199,0.052,0.403,0.079,0.609,0.08c0.667,0.004,1.308-0.259,1.78-0.73l9.68-9.68c0.979-0.974,0.982-2.557,0.009-3.535
		C81.716,8.37,81.293,8.136,80.831,8.031 M69.781,17.381l-3.519-0.89l-0.901-3.52l5.56-5.56l0.52,2.08
		c0.226,0.89,0.92,1.585,1.81,1.81l2.07,0.52L69.781,17.381z M37.051,19.381l-0.83,0.36c-10.148,4.647-14.607,16.641-9.96,26.789
		c0.71,1.552,1.615,3.007,2.69,4.331c0.267,0.333,0.547,0.666,0.841,1c7.579,8.193,20.365,8.691,28.559,1.111
		c5.544-5.129,7.765-12.92,5.76-20.201c-0.322-1.343,0.505-2.692,1.848-3.015c1.282-0.307,2.584,0.435,2.973,1.695
		c3.67,13.43-4.243,27.294-17.672,30.964c-9.069,2.479-18.763-0.295-25.149-7.194c-0.36-0.39-0.71-0.79-1-1.21
		c-8.78-10.805-7.138-26.683,3.667-35.464c1.652-1.342,3.468-2.47,5.403-3.356l1-0.45c5.131-2.064,10.797-2.39,16.131-0.93
		c1.319,0.407,2.058,1.806,1.652,3.126c-0.389,1.26-1.69,2.002-2.973,1.694c-4.28-1.169-8.825-0.902-12.94,0.76V19.381z
		 M36.051,38.131c-0.059,4.716,3.716,8.587,8.431,8.647c4.105,0.052,7.666-2.824,8.479-6.847c0.196-1.367,1.463-2.316,2.83-2.12
		c1.366,0.196,2.315,1.463,2.12,2.83c-0.014,0.097-0.034,0.195-0.059,0.29c-1.538,7.318-8.718,12.004-16.036,10.466
		c-7.318-1.538-12.003-8.717-10.466-16.036c1.103-5.246,5.197-9.348,10.442-10.46c1.333-0.356,2.703,0.436,3.06,1.77
		c0.356,1.334-0.436,2.704-1.77,3.061c-0.096,0.025-0.192,0.045-0.291,0.059c-3.916,0.87-6.707,4.338-6.72,8.35L36.051,38.131z
		 M72.501,62.881l4.931,17.28c0.889,3.159-0.924,6.448-4.071,7.38l-36,10.26c-3.168,0.888-6.46-0.941-7.38-4.1l-2.27-8h-11.52
		c-4.797-0.006-8.696-3.873-8.74-8.67v-11.43l-3.67-1.21c-2.889-0.955-4.456-4.073-3.501-6.962c0.058-0.175,0.126-0.349,0.201-0.518
		l5.73-12.88c0.821-1.837,1.244-3.828,1.24-5.84C7.479,17.66,24.13,1.031,44.661,1.031h0.111c4.141,0.005,8.253,0.712,12.16,2.09
		c1.285,0.504,1.919,1.954,1.415,3.24c-0.481,1.226-1.83,1.869-3.085,1.47c-3.377-1.189-6.931-1.798-10.511-1.8h-0.09
		c-17.773,0-32.187,14.396-32.21,32.17c0.004,2.716-0.569,5.402-1.679,7.88l-5.73,12.86c-0.062,0.133-0.062,0.287,0,0.42
		c0.057,0.134,0.17,0.236,0.31,0.28l5.389,1.78c1.021,0.34,1.71,1.294,1.71,2.37v13.24c0.006,2.063,1.677,3.735,3.74,3.74h13.43
		c1.114,0.002,2.093,0.739,2.401,1.81l2.79,9.78c0.162,0.502,0.688,0.791,1.199,0.66l36.001-10.26
		c0.501-0.158,0.794-0.679,0.67-1.19l-5.37-18.67c-0.246-0.856-0.017-1.778,0.599-2.42c6.256-6.474,9.487-15.287,8.901-24.27
		c-0.183-2.998-0.792-5.955-1.811-8.78c-0.467-1.301,0.21-2.733,1.511-3.2c1.3-0.467,2.733,0.21,3.199,1.51
		c4.571,12.765,1.811,27.008-7.199,37.14H72.501z"/>
</g>
</svg>
