<?xml version="1.0" encoding="utf-8"?>
<!-- Generator: Adobe Illustrator 17.0.0, SVG Export Plug-In . SVG Version: 6.00 Build 0)  -->
<!DOCTYPE svg PUBLIC "-//W3C//DTD SVG 1.1//EN" "http://www.w3.org/Graphics/SVG/1.1/DTD/svg11.dtd">
<svg version="1.1" id="Layer_1" xmlns="http://www.w3.org/2000/svg" xmlns:xlink="http://www.w3.org/1999/xlink" x="0px" y="0px"
	 width="78.508px" height="78.513px" viewBox="0 0 78.508 78.513" enable-background="new 0 0 78.508 78.513" xml:space="preserve">
<g fill="#d88bfc">
	<defs>
		<rect id="SVGID_1_" y="0" width="78.508" height="78.513"/>
	</defs>
	<clipPath id="SVGID_2_">
		<use xlink:href="#SVGID_1_"  overflow="visible"/>
	</clipPath>
	<path clip-path="url(#SVGID_2_)" d="M48.622,22.137c-4.28,0-7.75,3.47-7.75,7.75c0,2.055,0.817,4.026,2.27,5.48
		c3.027,3.026,7.933,3.026,10.961,0c3.026-3.026,3.026-7.934,0-10.96C52.648,22.954,50.678,22.137,48.622,22.137 M51.252,32.537
		c-1.412,1.515-3.785,1.599-5.3,0.187c-1.515-1.412-1.599-3.785-0.187-5.3c0.06-0.065,0.123-0.127,0.187-0.187
		c1.488-1.409,3.821-1.4,5.3,0.02c1.462,1.464,1.462,3.836,0,5.3V32.537z"/>
	<path clip-path="url(#SVGID_2_)" d="M11.102,64.576l-7.69,7.681c-0.784,0.784-0.784,2.055,0,2.84c0.784,0.784,2.056,0.784,2.84,0
		l7.69-7.691c0.782-0.781,0.782-2.048,0-2.83c-0.781-0.781-2.048-0.781-2.83,0H11.102z"/>
	<path clip-path="url(#SVGID_2_)" d="M77.922,0.586c-0.439-0.439-1.055-0.649-1.67-0.57l-19.241,2.36
		c-2.648,0.337-5.11,1.543-7,3.43l-6.129,6.13l-10.371-0.68c-3.63-0.261-7.22,0.909-10,3.26L9.192,26.566
		c-0.844,0.714-0.949,1.975-0.235,2.819c0.249,0.293,0.576,0.509,0.945,0.621l12.2,3.67l-3.85,3.9
		c-0.782,0.78-0.783,2.047-0.002,2.828l0.002,0.002l0.5,0.5l-6.181,3.35c-2.42,1.328-3.306,4.367-1.978,6.788
		c0.227,0.416,0.514,0.797,0.849,1.132l14.87,14.89c0.933,0.935,2.198,1.465,3.52,1.47c0.24,0.001,0.481-0.017,0.719-0.05
		c1.568-0.217,2.94-1.162,3.701-2.55l3.37-6.14l0.5,0.5c0.78,0.782,2.047,0.783,2.828,0.001c0.001,0,0.001-0.001,0.002-0.001
		l3.889-3.89l3.67,12.2c0.213,0.702,0.792,1.231,1.51,1.38c0.137,0.014,0.275,0.014,0.41,0c0.59,0.001,1.151-0.259,1.531-0.71
		l12.059-14.3c2.353-2.779,3.523-6.369,3.261-10l-0.71-10.35l6.13-6.13c1.883-1.891,3.086-4.353,3.42-7l2.37-19.24
		C78.571,1.641,78.36,1.024,77.922,0.586 M14.591,27.256l11.511-9.71c1.995-1.663,4.559-2.485,7.15-2.29l6.87,0.47l-14.801,14.75
		L14.591,27.256z M30.722,64.006c-0.266,0.484-0.874,0.661-1.358,0.396c-0.082-0.045-0.156-0.101-0.222-0.166l-14.89-14.87
		c-0.389-0.393-0.385-1.026,0.007-1.414c0.066-0.066,0.141-0.122,0.223-0.166l7.16-3.93l13,13L30.722,64.006z M63.252,45.256
		c0.177,2.589-0.658,5.146-2.33,7.13l-9.67,11.529l-3.22-10.729l14.79-14.79L63.252,45.256z M72.112,20.996
		c-0.218,1.771-1.02,3.417-2.28,4.68l-30.31,30.37l-17.06-17.06l30.349-30.35c1.263-1.261,2.91-2.063,4.681-2.28l16.76-2.1
		L72.112,20.996z"/>
	<path clip-path="url(#SVGID_2_)" d="M13.312,77.927c0.781,0.781,2.047,0.782,2.828,0.001c0.001,0,0.002-0.001,0.002-0.001
		l4.11-4.16c0.781-0.781,0.781-2.049,0-2.83s-2.048-0.781-2.83,0l-4.16,4.16c-0.768,0.794-0.746,2.06,0.048,2.828
		C13.311,77.925,13.311,77.926,13.312,77.927"/>
	<path clip-path="url(#SVGID_2_)" d="M1.992,65.786c0.529-0.002,1.037-0.214,1.41-0.59l4.16-4.16
		c0.657-0.888,0.469-2.141-0.42-2.797c-0.715-0.528-1.693-0.521-2.4,0.018l-4.16,4.159c-0.779,0.784-0.775,2.05,0.008,2.829
		c0.373,0.37,0.876,0.579,1.402,0.581V65.786z"/>
</g>
</svg>
