<?xml version="1.0" encoding="utf-8"?>
<!-- Generator: Adobe Illustrator 17.0.0, SVG Export Plug-In . SVG Version: 6.00 Build 0)  -->
<!DOCTYPE svg PUBLIC "-//W3C//DTD SVG 1.1//EN" "http://www.w3.org/Graphics/SVG/1.1/DTD/svg11.dtd">
<svg version="1.1" id="Layer_1" xmlns="http://www.w3.org/2000/svg" xmlns:xlink="http://www.w3.org/1999/xlink" x="0px" y="0px"
	 width="53.2px" height="81.2px" viewBox="0 0 53.2 81.2" enable-background="new 0 0 53.2 81.2" xml:space="preserve">
<g fill="#be82ff">
	<defs>
		<rect id="SVGID_1_" width="53.2" height="81.2"/>
	</defs>
	<clipPath id="SVGID_2_">
		<use xlink:href="#SVGID_1_"  overflow="visible"/>
	</clipPath>
	<path clip-path="url(#SVGID_2_)" d="M53.2,26.5L53.2,26.5C53.1,11.6,41.2,0,26.6,0S0.1,11.6,0,26.5C0.1,46.7,23.6,67.1,24.6,68
		c0.6,0.5,1.3,0.8,2,0.8c0.7,0,1.4-0.3,2-0.8C29.6,67.1,53.1,46.8,53.2,26.5C53.2,26.6,53.2,26.6,53.2,26.5
		C53.2,26.6,53.2,26.5,53.2,26.5 M28.8,59.2c-1.2,1.2-3.2,1.2-4.4,0C17.9,52.6,6.3,39.1,6.3,26.6c0-11,9.1-20.3,20.3-20.3
		s20.3,9.3,20.3,20.3C46.9,39.1,35.3,52.6,28.8,59.2 M53.2,68.7c0,8.2-13.4,12.5-26.6,12.5S0,76.9,0,68.7c0-3.8,2.9-6.7,7.3-8.8
		c1.2-0.6,2.7-0.2,3.6,0.8v0.1c1.3,1.6,0.8,3.9-1.1,4.8c-2.4,1.2-3.6,2.4-3.6,3.2c0,1.9,6.9,6.2,20.3,6.2s20.3-4.4,20.3-6.2
		c0-0.8-1.2-2-3.6-3.2c-1.8-0.9-2.4-3.2-1.1-4.8v-0.1c0.9-1,2.4-1.4,3.6-0.8C50.3,62,53.2,64.9,53.2,68.7 M26.6,15.6
		c-6,0-10.9,4.9-10.9,10.9s4.9,11,10.9,11s10.9-4.9,10.9-10.9S32.6,15.6,26.6,15.6 M26.6,31.2c-2.6,0-4.7-2.1-4.7-4.7
		c0-2.6,2.1-4.7,4.7-4.7s4.7,2.1,4.7,4.7C31.3,29.1,29.2,31.2,26.6,31.2"/>
</g>
</svg>
